# xmcd
#
# Track frame offsets:
#	150
#	21540
#	38091
#	61491
#	72201
#	84500
#	97530
#	114138
#	126788
#	138946
#	154713
#	173542
#	193960
#	214543
#	224619
#	240843
#	257464
#	267555
#	280563
#	297940
#	310212
#
# Disc length: 4378 seconds
#
# Revision: 1
# Processed by: cddbd v1.5.2PL0 Copyright (c) Steve Scherf et al.
# Submitted via: audiograbber 1.83.01
#
DISCID=23111815
DTITLE=Various Artist - Bad Bayou Voodoo
DYEAR=1900
DGENRE=Bayou Blues
TTITLE0=Chris Isaak - Wicked Game
TTITLE1=CC Adcock - Y'All'd Think She'd Be Good 2
TTITLE2=Creedence Clearwater Revival - Born on the Bayou
TTITLE3=Roy Orbison - Mean Woman Blues
TTITLE4=Jace Everett - Bad Things
TTITLE5=Chris Isaak - Baby Did A Bad Bad Thing
TTITLE6=Tony Joe White - Polk Salad Annie
TTITLE7=Dr John - Right Place, Wrong Time
TTITLE8=Redbone - The Witch Queen of New Orleans
TTITLE9=Lynyrd Skynyrd - Swamp Music
TTITLE10=ZZ Top - My Head's In Mississippi
TTITLE11=Mudcrutch - Lover Of The Bayou
TTITLE12=Captain Beefheart and The Magic Band - I'm Gonna Booglarize You Baby
TTITLE13=Chickasaw Mudd Puppies - Skinny
TTITLE14=The Cramps - Voodoo Idol
TTITLE15=Deadbolt - Psychic Voodoo Doll
TTITLE16=Elvis Presley - Baby Let's Play House
TTITLE17=Little Esther - I'm a Bad Bad Girl
TTITLE18=Bryan Ferry - I Put a Spell on You
TTITLE19=Albert King - Born Under A Bad Sign
TTITLE20=Warren Storm - Lord, I Need Somebody Bad Toni
EXTD=
EXTT0=
EXTT1=
EXTT2=
EXTT3=
EXTT4=
EXTT5=
EXTT6=
EXTT7=
EXTT8=
EXTT9=
EXTT10=
EXTT11=
EXTT12=
EXTT13=
EXTT14=
EXTT15=
EXTT16=
EXTT17=
EXTT18=
EXTT19=
EXTT20=
PLAYORDER=
